<svg xmlns="http://www.w3.org/2000/svg" width="27" height="21" viewBox="0 0 27 21" fill="none">
  <path d="M22.3537 2.63493C20.6199 1.84117 18.7896 1.27806 16.9095 0.959961C16.6522 1.41988 16.4194 1.89307 16.2121 2.37756C14.2094 2.07578 12.1728 2.07578 10.1702 2.37756C9.96274 1.89312 9.72996 1.41993 9.47279 0.959961C7.59148 1.28074 5.75997 1.8452 4.02447 2.63908C0.579058 7.73663 -0.354939 12.7076 0.11206 17.6079C2.12978 19.0987 4.38818 20.2325 6.7891 20.96C7.32972 20.2329 7.8081 19.4615 8.21916 18.654C7.43841 18.3624 6.68484 18.0027 5.96719 17.5789C6.15606 17.4419 6.34079 17.3008 6.51928 17.1638C8.60749 18.1458 10.8867 18.655 13.1943 18.655C15.5018 18.655 17.781 18.1458 19.8692 17.1638C20.0498 17.3111 20.2345 17.4523 20.4213 17.5789C19.7023 18.0033 18.9473 18.3638 18.1652 18.6561C18.5757 19.4632 19.0542 20.2339 19.5952 20.96C21.9982 20.2354 24.2584 19.1022 26.2764 17.61C26.8244 11.9272 25.3404 7.00189 22.3537 2.63493ZM8.81069 14.5942C7.50932 14.5942 6.43419 13.4133 6.43419 11.9604C6.43419 10.5075 7.47196 9.31612 8.80654 9.31612C10.1411 9.31612 11.2079 10.5075 11.1851 11.9604C11.1623 13.4133 10.137 14.5942 8.81069 14.5942ZM17.5778 14.5942C16.2744 14.5942 15.2034 13.4133 15.2034 11.9604C15.2034 10.5075 16.2412 9.31612 17.5778 9.31612C18.9145 9.31612 19.973 10.5075 19.9502 11.9604C19.9273 13.4133 18.9041 14.5942 17.5778 14.5942Z" fill="#CCCCCC"/>
</svg>