<svg xmlns="http://www.w3.org/2000/svg" width="21" height="21" viewBox="0 0 21 21" fill="none">
  <path d="M10.3894 0.959961C7.67355 0.959961 7.33272 0.971836 6.26605 1.02038C5.20147 1.06913 4.4748 1.23767 3.83897 1.48496C3.18126 1.74038 2.62334 2.08204 2.06751 2.63809C1.51126 3.19392 1.16959 3.75184 0.913341 4.40934C0.665425 5.04538 0.496675 5.77225 0.448758 6.83642C0.40105 7.90309 0.38855 8.24413 0.38855 10.96C0.38855 13.6758 0.400633 14.0156 0.448967 15.0823C0.497925 16.1468 0.666467 16.8735 0.91355 17.5093C1.16917 18.167 1.51084 18.725 2.06688 19.2808C2.62251 19.837 3.18042 20.1795 3.83772 20.435C4.47397 20.6823 5.20084 20.8508 6.26522 20.8995C7.33188 20.9481 7.67251 20.96 10.3881 20.96C13.1042 20.96 13.444 20.9481 14.5106 20.8995C15.5752 20.8508 16.3027 20.6823 16.939 20.435C17.5965 20.1795 18.1536 19.837 18.7092 19.2808C19.2654 18.725 19.6071 18.167 19.8633 17.5095C20.1092 16.8735 20.2779 16.1466 20.3279 15.0825C20.3758 14.0158 20.3883 13.6758 20.3883 10.96C20.3883 8.24413 20.3758 7.90329 20.3279 6.83663C20.2779 5.77204 20.1092 5.04538 19.8633 4.40954C19.6071 3.75184 19.2654 3.19392 18.7092 2.63809C18.1529 2.08184 17.5967 1.74017 16.9383 1.48496C16.3008 1.23767 15.5738 1.06913 14.5092 1.02038C13.4425 0.971836 13.1029 0.959961 10.3863 0.959961H10.3894ZM9.4923 2.76204C9.75855 2.76163 10.0556 2.76204 10.3894 2.76204C13.0594 2.76204 13.3758 2.77163 14.4302 2.81954C15.4052 2.86413 15.9344 3.02704 16.2869 3.16392C16.7535 3.34517 17.0863 3.56184 17.4361 3.91184C17.7861 4.26184 18.0027 4.59517 18.1844 5.06184C18.3213 5.41392 18.4844 5.94309 18.5288 6.91809C18.5767 7.97225 18.5871 8.28892 18.5871 10.9577C18.5871 13.6264 18.5767 13.9431 18.5288 14.9973C18.4842 15.9723 18.3213 16.5014 18.1844 16.8535C18.0031 17.3202 17.7861 17.6525 17.4361 18.0023C17.0861 18.3523 16.7538 18.5689 16.2869 18.7502C15.9348 18.8877 15.4052 19.0502 14.4302 19.0948C13.3761 19.1427 13.0594 19.1531 10.3894 19.1531C7.71917 19.1531 7.40272 19.1427 6.34855 19.0948C5.37355 19.0498 4.84438 18.8868 4.49167 18.75C4.02501 18.5687 3.69167 18.352 3.34167 18.002C2.99167 17.652 2.77501 17.3195 2.59334 16.8527C2.45647 16.5006 2.29334 15.9714 2.24897 14.9964C2.20105 13.9423 2.19147 13.6256 2.19147 10.9552C2.19147 8.28475 2.20105 7.96975 2.24897 6.91559C2.29355 5.94059 2.45647 5.41142 2.59334 5.05892C2.77459 4.59225 2.99167 4.25892 3.34167 3.90892C3.69167 3.55892 4.02501 3.34225 4.49167 3.16059C4.84417 3.02309 5.37355 2.86059 6.34855 2.81579C7.27105 2.77413 7.62855 2.76163 9.4923 2.75954V2.76204ZM15.7273 4.42246C15.0648 4.42246 14.5273 4.95934 14.5273 5.62204C14.5273 6.28454 15.0648 6.82204 15.7273 6.82204C16.3898 6.82204 16.9273 6.28454 16.9273 5.62204C16.9273 4.95954 16.3898 4.42204 15.7273 4.42204V4.42246ZM10.3894 5.82454C7.55334 5.82454 5.25397 8.12392 5.25397 10.96C5.25397 13.796 7.55334 16.0943 10.3894 16.0943C13.2254 16.0943 15.524 13.796 15.524 10.96C15.524 8.12392 13.2254 5.82454 10.3894 5.82454ZM10.3894 7.62663C12.2302 7.62663 13.7227 9.11892 13.7227 10.96C13.7227 12.8008 12.2302 14.2933 10.3894 14.2933C8.54834 14.2933 7.05605 12.8008 7.05605 10.96C7.05605 9.11892 8.54834 7.62663 10.3894 7.62663Z" fill="#CCCCCC"/>
</svg>