<svg xmlns="http://www.w3.org/2000/svg" width="25" height="21" viewBox="0 0 25 21" fill="none">
  <path d="M1.85461 9.67002C1.85461 9.67002 12.5524 5.2796 16.2626 3.73368C17.6849 3.11531 22.5081 1.13653 22.5081 1.13653C22.5081 1.13653 24.7343 0.270811 24.5488 2.37327C24.4869 3.23898 23.9922 6.26899 23.4975 9.54635C22.7555 14.1841 21.9516 19.2547 21.9516 19.2547C21.9516 19.2547 21.8279 20.677 20.7767 20.9243C19.7255 21.1717 17.994 20.0586 17.6849 19.8113C17.4375 19.6258 13.0471 16.8431 11.4393 15.4827C11.0065 15.1117 10.5118 14.3696 11.5012 13.5039C13.7273 11.4633 16.3863 8.92798 17.994 7.32022C18.7361 6.57818 19.4781 4.84674 16.3863 6.9492C11.9959 9.97921 7.66728 12.8237 7.66728 12.8237C7.66728 12.8237 6.67789 13.4421 4.82278 12.8855C2.96768 12.329 0.803384 11.587 0.803384 11.587C0.803384 11.587 -0.680702 10.6594 1.85461 9.67002Z" fill="#CCCCCC"/>
</svg>